/* XPM */
static char *_da923c094a1408cd8ae76e8563070dcuVTB1dbaoQADJh9o[] = {
/* columns rows colors chars-per-pixel */
"100 100 11 1 ",
"  c None",
". c black",
"X c #572D22",
"o c #AB381B",
"O c #AB5C1B",
"+ c #AB6918",
"@ c #FF7F27",
"# c #B97A57",
"$ c #F75B63",
"% c #F7AB79",
"& c #DBA88C",
/* pixels */
"                                                                                                    ",
"                                                                                                    ",
"                                                                                                    ",
"                                                                                                    ",
"                                                                                                    ",
"                                                                                                    ",
"                                                                                                    ",
"                                                                                                    ",
"                                                                                                    ",
"                                                                                                    ",
"                                                                                                    ",
"                                                                                                    ",
"                                                                                                    ",
"                                                                                                    ",
"                                                                                                    ",
"                                                                                                    ",
"                                                                                                    ",
"                                                                                                    ",
"                                                                                                    ",
"                                                                                                    ",
"                                                                                                    ",
"                                                                                                    ",
"                                                                                                    ",
"                                                                                                    ",
"                                                                                                    ",
"                                                                                                    ",
"                                                                                                    ",
"                                                                                                    ",
"                                                                 @@OO                               ",
"                                                                 @@OO                               ",
"                                                                 @@@@OO                             ",
"                                                                 @@@@OO                             ",
"                                                                   @@@@OO                           ",
"                                                                   @@@@OO                           ",
"                                 ##        ##                        @@OO                           ",
"                                 ##        ##                        @@OO                           ",
"                               ##oo##    ##oo##                      @@OO                           ",
"                               ##oo##    ##oo##                      @@OO                           ",
"                               ##@@@@@@@@@@oo##                      @@OO                           ",
"                               ##@@@@@@@@@@oo##                      @@OO                           ",
"                               @@@@@@@@@@@@@@@@##                  @@@@OO                           ",
"                               @@@@@@@@@@@@@@@@##                  @@@@OO                           ",
"                           XX@@..@@@@@@@@..@@@@XXXXXX              @@OO                             ",
"                           XX@@..@@@@@@@@..@@@@XXXXXX              @@OO                             ",
"                             @@@@@@@XX@@@@@@@@@@@++              @@@@OO                             ",
"                             @@@@@@@XX@@@@@@@@@@@++              @@@@OO                             ",
"                           XX@@@@@XX$$XX@@@@@@@XXXXXX@@@@@@@@@@@@@@++                               ",
"                           XX@@@@@XX$$XX@@@@@@@XXXXXX@@@@@@@@@@@@@@++                               ",
"                             @@@@@@@$$@@@@@@@@@@@oo@@@@@@@@@@@@@@++                                 ",
"                             @@@@@@@$$@@@@@@@@@@@oo@@@@@@@@@@@@@@++                                 ",
"                               @@@@@@@@@@@@@@@@oo@@@@@@@@@@@@@@%%                                   ",
"                               @@@@@@@@@@@@@@@@oo@@@@@@@@@@@@@@%%                                   ",
"                                 @@@@@@@@@@@@@@@@@@@@@@@@@@@@@@%%                                   ",
"                                 @@@@@@@@@@@@@@@@@@@@@@@@@@@@@@%%                                   ",
"                                 @@@@@%%@@@@@@@@@@@@@@@@@@@@@@@%%                                   ",
"                                 @@@@@%%@@@@@@@@@@@@@@@@@@@@@@@%%                                   ",
"                                 @@%%%%%%@@@@@@@@@@@@@@@@@@@@@@@@##                                 ",
"                                 @@%%%%%%@@@@@@@@@@@@@@@@@@@@@@@@##                                 ",
"                                 ++%%%%%%%%@@@@@@@@@@@@@@@@@@@@@@##                                 ",
"                                 ++%%%%%%%%@@@@@@@@@@@@@@@@@@@@@@##                                 ",
"                                   OO%%%%%%@@@@@@@@@@@@@@@@@@@@@@##                                 ",
"                                   OO%%%%%%@@@@@@@@@@@@@@@@@@@@@@##                                 ",
"                                   @@OOOOOO@@@@@@&&&&&&&&&&&&@@@@##                                 ",
"                                   @@OOOOOO@@@@@@&&&&&&&&&&&&@@@@##                                 ",
"                                   @@OO    @@++          OOOO  @@##                                 ",
"                                   @@OO    @@++          OOOO  @@##                                 ",
"                                     OO    @@              OO    ##                                 ",
"                                     OO    @@              OO    ##                                 ",
"                                                                                                    ",
"                                                                                                    ",
"                                                                                                    ",
"                                                                                                    ",
"                                                                                                    ",
"                                                                                                    ",
"                                                                                                    ",
"                                                                                                    ",
"                                                                                                    ",
"                                                                                                    ",
"                                                                                                    ",
"                                                                                                    ",
"                                                                                                    ",
"                                                                                                    ",
"                                                                                                    ",
"                                                                                                    ",
"                                                                                                    ",
"                                                                                                    ",
"                                                                                                    ",
"                                                                                                    ",
"                                                                                                    ",
"                                                                                                    ",
"                                                                                                    ",
"                                                                                                    ",
"                                                                                                    ",
"                                                                                                    ",
"                                                                                                    ",
"                                                                                                    ",
"                                                                                                    ",
"                                                                                                    ",
"                                                                                                    ",
"                                                                                                    "
};
