/* XPM */
static char *bc41dd078712407aae304ceba86d01bajI5Triw94i9GzQ6a[] = {
/* columns rows colors chars-per-pixel */
"100 100 11 1 ",
"  c None",
". c black",
"X c #572D22",
"o c #AB381B",
"O c #AB5C1B",
"+ c #AB6918",
"@ c #FF7F27",
"# c #B97A57",
"$ c #F75B63",
"% c #F7AB79",
"& c #DBA88C",
/* pixels */
"                                                                                                    ",
"                                                                                                    ",
"                                                                                                    ",
"                                                                                                    ",
"                                                                                                    ",
"                                                                                                    ",
"                                                                                                    ",
"                                                                                                    ",
"                                                                                                    ",
"                                                                                                    ",
"                                                                                                    ",
"                                                                                                    ",
"                                                                                                    ",
"                                                                                                    ",
"                                                                                                    ",
"                                                                                                    ",
"                                                                                                    ",
"                                                                                                    ",
"                                                                                                    ",
"                                                                                                    ",
"                                                                                                    ",
"                                                                                                    ",
"                                                                                                    ",
"                                                                                                    ",
"                                                                                                    ",
"                                                                                                    ",
"                                                                                                    ",
"                                                                                                    ",
"                                                                   @@OO                             ",
"                                                                   @@OO                             ",
"                                                                   @@OO                             ",
"                                                                   @@OO                             ",
"                                                                   @@@@OO                           ",
"                                                                   @@@@OO                           ",
"                                 ##        ##                        @@OO                           ",
"                                 ##        ##                        @@OO                           ",
"                               ##oo##    ##oo##                      @@OO                           ",
"                               ##oo##    ##oo##                      @@OO                           ",
"                               ##@@@@@@@@@@oo##                      @@OO                           ",
"                               ##@@@@@@@@@@oo##                      @@OO                           ",
"                               @@@@@@@@@@@@@@@@##                  @@@@OO                           ",
"                               @@@@@@@@@@@@@@@@##                  @@@@OO                           ",
"                           XX@@..@@@@@@@@..@@@@XXXXXX              @@OO                             ",
"                           XX@@..@@@@@@@@..@@@@XXXXXX              @@OO                             ",
"                             @@@@@@@XX@@@@@@@@@@@++              @@@@OO                             ",
"                             @@@@@@@XX@@@@@@@@@@@++              @@@@OO                             ",
"                           XX@@@@@XX$$XX@@@@@@@XXXXXX@@@@@@@@@@@@@@++                               ",
"                           XX@@@@@XX$$XX@@@@@@@XXXXXX@@@@@@@@@@@@@@++                               ",
"                             @@@@@@@$$@@@@@@@@@@@oo@@@@@@@@@@@@@@++                                 ",
"                             @@@@@@@$$@@@@@@@@@@@oo@@@@@@@@@@@@@@++                                 ",
"                               @@@@@@@@@@@@@@@@oo@@@@@@@@@@@@@@%%                                   ",
"                               @@@@@@@@@@@@@@@@oo@@@@@@@@@@@@@@%%                                   ",
"                                 @@@@@@@@@@@@@@@@@@@@@@@@@@@@@@%%                                   ",
"                                 @@@@@@@@@@@@@@@@@@@@@@@@@@@@@@%%                                   ",
"                                 @@@@@%%@@@@@@@@@@@@@@@@@@@@@@@%%                                   ",
"                                 @@@@@%%@@@@@@@@@@@@@@@@@@@@@@@%%                                   ",
"                                 @@%%%%%%@@@@@@@@@@@@@@@@@@@@@@@@##                                 ",
"                                 @@%%%%%%@@@@@@@@@@@@@@@@@@@@@@@@##                                 ",
"                                 ++%%%%%%%%@@@@@@@@@@@@@@@@@@@@@@##                                 ",
"                                 ++%%%%%%%%@@@@@@@@@@@@@@@@@@@@@@##                                 ",
"                                   OO%%%%%%@@@@@@@@@@@@@@@@@@@@@@##                                 ",
"                                   OO%%%%%%@@@@@@@@@@@@@@@@@@@@@@##                                 ",
"                                   @@OOOOOO@@@@@@&&&&&&&&&&&&@@@@##                                 ",
"                                   @@OOOOOO@@@@@@&&&&&&&&&&&&@@@@##                                 ",
"                                     ++++  @@++          OOOO  @@##                                 ",
"                                     ++++  @@++          OOOO  @@##                                 ",
"                                           @@              OO    ##                                 ",
"                                           @@              OO    ##                                 ",
"                                                                                                    ",
"                                                                                                    ",
"                                                                                                    ",
"                                                                                                    ",
"                                                                                                    ",
"                                                                                                    ",
"                                                                                                    ",
"                                                                                                    ",
"                                                                                                    ",
"                                                                                                    ",
"                                                                                                    ",
"                                                                                                    ",
"                                                                                                    ",
"                                                                                                    ",
"                                                                                                    ",
"                                                                                                    ",
"                                                                                                    ",
"                                                                                                    ",
"                                                                                                    ",
"                                                                                                    ",
"                                                                                                    ",
"                                                                                                    ",
"                                                                                                    ",
"                                                                                                    ",
"                                                                                                    ",
"                                                                                                    ",
"                                                                                                    ",
"                                                                                                    ",
"                                                                                                    ",
"                                                                                                    ",
"                                                                                                    ",
"                                                                                                    "
};
