/* XPM */
static char *result[] = {
/* columns rows colors chars-per-pixel */
"64 64 9 1 ",
"  c black",
". c #572D22",
"X c #AB5C1B",
"o c #DB8D07",
"O c #F2A530",
"+ c #EBC800",
"@ c #FFC90E",
"# c #FFF200",
"$ c None",
/* pixels */
"$$$$$$$$$$$$$$$$$$$$$$$$$$$$$$$$$$$$$$$$$$$$$$$$$$$$$$$$$$$$$$$$",
"$$$$$$$$$$$$$$$$$$$$$$$$$$$$$$$$$$$$$$$$$$$$$$$$$$$$$$$$$$$$$$$$",
"$$$$$$$$$$$$$$$$$$$$$$$$$$$$$$$$$$$$$$$$$$$$$$$$$$$$$$$$$$$$$$$$",
"$$$$$$$$$$$$$$$$$$$$$$$$$$$$$$$$$$$$$$$$$$$$$$$$$$$$$$$$$$$$$$$$",
"$$$$$$$$$$$$$$$$$$$$$$$$$$$$$$$$$$$$$$$$$$$$$$$$$$$$$$$$$$$$$$$$",
"$$$$$$$$$$$$$$$$$$$$$$$$$$$$$$$$$$$$$$$$$$$$$$$$$$$$$$$$$$$$$$$$",
"$$$$$$$$$$$$$$$$$$$$$$$$$$$$$$$$$$$$$$$$$$$$$$$$$$$$$$$$$$$$$$$$",
"$$$$$$$$$$$$$$$$$$$$$$$$$$$$$$$$$$$$$$$$$$$$$$$$$$$$$$$$$$$$$$$$",
"$$$$$$$$$$$$$$$$$$$$$$$$$$$$$$$$$$$$$$$$$$$$$$$$$$$$$$$$$$$$$$$$",
"$$$$$$$$$$$$$$$$$$$$$$$$$$$$$$$$$$$$$$$$$$$$$$$$$$$$$$$$$$$$$$$$",
"$$$$$$$$$$$$$$$$$$$$$$$$$$$$$$$$$$$$$$$$$$$$$$$$$$$$$$$$$$$$$$$$",
"$$$$$$$$$$$$$$$$$$##################@@@@OOOO$$$$$$$$$$$$$$$$$$$$",
"$$$$$$$$$$$$$$$$$$##################@@@@OOOO$$$$$$$$$$$$$$$$$$$$",
"$$$$$$$$$$$$$$$$##............##............OO$$$$$$$$$$$$$$$$$$",
"$$$$$$$$$$$$$$$$##............##............OO$$$$$$$$$$$$$$$$$$",
"$$$$$$$$$$$$$$##..ooooXXXXoooo##..XXXXooooXX..OO$$$$$$$$$$$$$$$$",
"$$$$$$$$$$$$$$##..ooooXXXXoooo##..XXXXooooXX..OO$$$$$$$$$$$$$$$$",
"$$$$$$$$$$$$##..XXooooXXXXoooo##..XXXXooooXXXX..OO$$$$$$$$$$$$$$",
"$$$$$$$$$$$$##..XXooooXXXXoooo##..XXXXooooXXXX..OO$$$$$$$$$$$$$$",
"$$$$$$$$$$$$##..XXooooXXXXoooo##..XXXXooooXXXX..OO$$$$$$$$$$$$$$",
"$$$$$$$$$$$$##..XXooooXXXXoooo##..XXXXooooXXXX..OO$$$$$$$$$$$$$$",
"$$$$$$$$$$$$##..XXooooXXXXoooo++..XXXXooooXXXX..OO$$$$$$$$$$$$$$",
"$$$$$$$$$$$$##..XXooooXXXXoooo++..XXXXooooXXXX..OO$$$$$$$$$$$$$$",
"$$$$$$$$$$$$##..XXooooXXXXoooo++..XXXXooooXXXX..OO$$$$$$$$$$$$$$",
"$$$$$$$$$$$$##..XXooooXXXXoooo++..XXXXooooXXXX..OO$$$$$$$$$$$$$$",
"$$$$$$$$$$$$##..XXooooXXXXoooo++..XXXXooooXXXX..@@$$$$$$$$$$$$$$",
"$$$$$$$$$$$$##..XXooooXXXXoooo++..XXXXooooXXXX..@@$$$$$$$$$$$$$$",
"$$$$$$$$$$$$##..XXooooXXXXoooo++..XXXXooooXXXX..@@$$$$$$$$$$$$$$",
"$$$$$$$$$$$$##..XXooooXXXXoooo++..XXXXooooXXXX..@@$$$$$$$$$$$$$$",
"$$$$$$$$$$$$##..XXooooXXXXoooo++..XXXXooooXXXXoo##$$$$$$$$$$$$$$",
"$$$$$$$$$$$$##..XXooooXXXXoooo++....XXooooXXXXoo##$$$$$$$$$$$$$$",
"$$$$$$$$$$$$##..XXooooXXXXoooo++....XXooooXXXXoo##$$$$$$$$$$$$$$",
"$$$$$$$$$$$$++..XXooooXXXX++++++++++..ooooXXXXoo##$$$$$$$$$$$$$$",
"$$$$$$$$$$$$++..XXooooXXXX++++++++++..ooooXXXXoo##$$$$$$$$$$$$$$",
"$$$$$$$$$$$$++..XXooooXX++++  ++  OOOO..ooXXXXoo##$$$$$$$$$$$$$$",
"$$$$$$$$$$$$++..XXooooXX++++  ++  OOOO..ooXXXXoo##$$$$$$$$$$$$$$",
"$$$$$$$$$$$$++..XXooooXX++++++++OOOOOO..ooXXXXoo##$$$$$$$$$$$$$$",
"$$$$$$$$$$$$++..XXooooXX++++++++OOOOOO..ooXXXXoo##$$$$$$$$$$$$$$",
"$$$$$$$$$$$$++..XXooooXX......OO........ooXXXXoo##$$$$$$$$$$$$$$",
"$$$$$$$$$$$$++..XXooooXX......OO........ooXXXXoo##$$$$$$$$$$$$$$",
"$$$$$$$$$$$$OO..XXooooXXXXooooOO..XXXXooooXXXXoo##$$$$$$$$$$$$$$",
"$$$$$$$$$$$$OO..XXooooXXXXooooOO..XXXXooooXXXXoo##$$$$$$$$$$$$$$",
"$$$$$$$$$$$$OO..XXooooXXXXooooOO..XXXXooooXXXXoo##$$$$$$$$$$$$$$",
"$$$$$$$$$$$$OO..XXooooXXXXooooOO..XXXXooooXXXXoo##$$$$$$$$$$$$$$",
"$$$$$$$$$$$$OO..XXooooXXXXooooOO..XXXXooooXXXXoo##$$$$$$$$$$$$$$",
"$$$$$$$$$$$$OO..XXooooXXXXooooOO..XXXXooooXXXXoo##$$$$$$$$$$$$$$",
"$$$$$$$$$$$$OO..XXooooXXXXoooo++..XXXXooooXXXXoo##$$$$$$$$$$$$$$",
"$$$$$$$$$$$$OO..XXooooXXXXoooo++..XXXXooooXXXXooOO$$$$$$$$$$$$$$",
"$$$$$$$$$$$$OO..XXooooXXXXoooo++..XXXXooooXXXXooOO$$$$$$$$$$$$$$",
"$$$$$$$$$$$$OO................++................oo$$$$$$$$$$$$$$",
"$$$$$$$$$$$$OO................++................oo$$$$$$$$$$$$$$",
"$$$$$$$$$$$$OO................++................oo$$$$$$$$$$$$$$",
"$$$$$$$$$$$$OO................++................oo$$$$$$$$$$$$$$",
"$$$$$$$$$$$$$$$$$$$$$$$$$$$$$$$$$$$$$$$$$$$$$$$$$$$$$$$$$$$$$$$$",
"$$$$$$$$$$$$$$$$$$$$$$$$$$$$$$$$$$$$$$$$$$$$$$$$$$$$$$$$$$$$$$$$",
"$$$$$$$$$$$$$$$$$$$$$$$$$$$$$$$$$$$$$$$$$$$$$$$$$$$$$$$$$$$$$$$$",
"$$$$$$$$$$$$$$$$$$$$$$$$$$$$$$$$$$$$$$$$$$$$$$$$$$$$$$$$$$$$$$$$",
"$$$$$$$$$$$$$$$$$$$$$$$$$$$$$$$$$$$$$$$$$$$$$$$$$$$$$$$$$$$$$$$$",
"$$$$$$$$$$$$$$$$$$$$$$$$$$$$$$$$$$$$$$$$$$$$$$$$$$$$$$$$$$$$$$$$",
"$$$$$$$$$$$$$$$$$$$$$$$$$$$$$$$$$$$$$$$$$$$$$$$$$$$$$$$$$$$$$$$$",
"$$$$$$$$$$$$$$$$$$$$$$$$$$$$$$$$$$$$$$$$$$$$$$$$$$$$$$$$$$$$$$$$",
"$$$$$$$$$$$$$$$$$$$$$$$$$$$$$$$$$$$$$$$$$$$$$$$$$$$$$$$$$$$$$$$$",
"$$$$$$$$$$$$$$$$$$$$$$$$$$$$$$$$$$$$$$$$$$$$$$$$$$$$$$$$$$$$$$$$",
"$$$$$$$$$$$$$$$$$$$$$$$$$$$$$$$$$$$$$$$$$$$$$$$$$$$$$$$$$$$$$$$$"
};
