/* XPM */
static char *result[] = {
/* columns rows colors chars-per-pixel */
"64 64 3 1 ",
"  c #485573",
". c #96A5C1",
"X c #CAD6F4",
/* pixels */
"    .................................    XXXX...................",
"    .................................    XXXX...................",
"    .................................    XXXX...................",
"    .................................    XXXX...................",
"    .................................    XXXX...................",
"    .................................    XXXX...................",
"    .................................    XXXX...................",
"    .................................    XXXX...................",
"    .................................    XXXX...................",
"    .................................    XXXXXXXXXXXXXXXXXXX....",
"    .............................XXXX    XXXXXXXXXXXXXXXXXXX....",
"    .............................XXXX    XXXXXXXXXXXXXXXXXXX....",
"    .............................XXXX    XXXXXXXXXXXXXXXXXXX....",
"    .............................XXXX                       ....",
"    .............................XXXX                       ....",
"    .............................XXXX                       ....",
"    .............................XXXX                       ....",
"    .............................XXXX    ...........        ....",
"    .............................XXXX    ...........        ....",
"    ....    .....................XXXX    ...........        ....",
"    ....    .....................XXXX    ...........        ....",
"    ....    .....................XXXX    .......    ....    ....",
"    ....    .....................XXXX    .......    ....    ....",
"        ............XXXXXXXXXXXXXXXXX    .......    ....    ....",
"        ............XXXXXXXXXXXXXXXXX    .......    ....    ....",
"        ............XXXXXXXXXXXXXXXXX    ...........XXXX    ....",
"        ............XXXXXXXXXXXXXXXXX    ...........XXXX    ....",
"                                         ...........XXXX    ....",
"                                         ...........XXXX        ",
"                                         ...........XXXX        ",
"                                         ...........XXXX        ",
".......        ........    .........................XXXX        ",
".......        ........    .........................XXXX    ....",
".......        ........    .........................XXXX    ....",
".......        ........    .........................XXXX    ....",
"...    ....    ........    .........................XXXX    ....",
"...    ....    ........    ..............XXXXXXXXXXXXXXX    ....",
"...    ....    ........    ..............XXXXXXXXXXXXXXX    ....",
"...    ....    ........    ..............XXXXXXXXXXXXXXX    ....",
"...........    ........    ..............XXXXXXXXXXXXXXX    ....",
"...........    ........                                     ....",
"...........    ........                                     ....",
"...........    ........                                     ....",
"...........    ........                                     ....",
"...........    .....................................    ........",
"...........    .....................................    ........",
".......XXXX    .....................................    ........",
".......XXXX    .....................................    ........",
".......XXXX    .....................................    ........",
".......XXXX                                .........    ....    ",
".......XXXX                                .........    ....    ",
".......XXXX                                .........    ....    ",
"...XXXXXXXX                                .........    ....    ",
"...XXXXXXXX    ....................                         ....",
"...XXXXXXXX    ....................                         ....",
"...XXXXXXXX    ....................                         ....",
"               ....................                         ....",
"               ................    ....    .........            ",
"               ................    ....    .........            ",
"               ................    ....    .........            ",
"    ...........................    ....    .........            ",
"    ...................................    .....................",
"    ...................................    .....................",
"    ...................................    ....................."
};
