/* XPM */
static char *result[] = {
/* columns rows colors chars-per-pixel */
"64 64 6 1 ",
"  c #110606",
". c #CD8000",
"X c #FFA000",
"o c yellow",
"O c white",
"+ c None",
/* pixels */
"++++++++++++++++++++++++++++++++++++++++++++++++++++++++++++++++",
"++++++++++++++++++++++++++++++++++++++++++++++++++++++++++++++++",
"++++++++++++++++++++++++++++++++++++++++++++++++++++++++++++++++",
"++++++++++++++++++++++++++++++++++++++++++++++++++++++++++++++++",
"++++++++++++++++++++++++++++++++++++++++++++++++++++++++++++++++",
"++++++++++++++++++++++++++++++++++++++++++++++++++++++++++++++++",
"++++++++++++++++++++++++++++++++++++++++++++++++++++++++++++++++",
"++++++++++++++++++++++++++++++++++++++++++++++++++++++++++++++++",
"++++++++++++++++++++++++++++++++++++++++++++++++++++++++++++++++",
"++++++++++++++++++++++++++++++++++++++++++++++++++++++++++++++++",
"++++++++++++++++++++++++++++++++++++++++++++++++++++++++++++++++",
"++++++++++++++++++++++++++++++++++++++++++++++++++++++++++++++++",
"++++++++++++++++++++++++++++++++++++++++++++++++++++++++++++++++",
"++++++++++++++++++++++++++++++++++++++++++++++++++++++++++++++++",
"++++++++++++++++++++++++++++++++++++++++++++++++++++++++++++++++",
"++++++++++++++++++++++++++++++++++++++++++++++++++++++++++++++++",
"++++++++++++++++++++++++++++        ++++++++++++++++++++++++++++",
"++++++++++++++++++++++++++++        ++++++++++++++++++++++++++++",
"++++++++++++++++++++++++    oooooooo    ++++++++++++++++++++++++",
"++++++++++++++++++++++++    oooooooo    ++++++++++++++++++++++++",
"++++++++++++++++++++++  ooooXXXXXXXXOOOO  ++++++++++++++++++++++",
"++++++++++++++++++++++  ooooXXXXXXXXOOOO  ++++++++++++++++++++++",
"++++++++++++++++++++  ooXXXXXXXXXXOOOOXXOO  ++++++++++++++++++++",
"++++++++++++++++++++  ooXXXXXXXXXXOOOOXXOO  ++++++++++++++++++++",
"++++++++++++++++++  ooXXXXXXXXooOOOOXXOOXX..  ++++++++++++++++++",
"++++++++++++++++++  ooXXXXXXXXooOOOOXXOOXX..  ++++++++++++++++++",
"++++++++++++++++++  ooXXXXXXooOOOO..OOXXXX..  ++++++++++++++++++",
"++++++++++++++++++  ooXXXXXXooOOOO..OOXXXX..  ++++++++++++++++++",
"++++++++++++++++++  ooXXXXooOOOOXXOOXXXXXX..  ++++++++++++++++++",
"++++++++++++++++++  ooXXXXooOOOOXXOOXXXXXX..  ++++++++++++++++++",
"++++++++++++++++++  ooXXXXOOOOXXOO..XXXXXX..  ++++++++++++++++++",
"++++++++++++++++++  ooXXXXOOOOXXOO..XXXXXX..  ++++++++++++++++++",
"++++++++++++++++++  ooXXOOOOooOOXX..XXXXXX..  ++++++++++++++++++",
"++++++++++++++++++  ooXXOOOOooOOXX..XXXXXX..  ++++++++++++++++++",
"++++++++++++++++++  ooOOOOXXOOXXXX..XXXXXX..  ++++++++++++++++++",
"++++++++++++++++++  ooOOOOXXOOXXXX..XXXXXX..  ++++++++++++++++++",
"++++++++++++++++++  OOOOXXOOooXXXX..XXXXXX..  ++++++++++++++++++",
"++++++++++++++++++  OOOOXXOOooXXXX..XXXXXX..  ++++++++++++++++++",
"++++++++++++++++++  OOXXOOXXXX....XXXXXXXX..  ++++++++++++++++++",
"++++++++++++++++++  OOXXOOXXXX....XXXXXXXX..  ++++++++++++++++++",
"++++++++++++++++++++  OOXXXXXXXXXXXXXXXX..  ++++++++++++++++++++",
"++++++++++++++++++++  OOXXXXXXXXXXXXXXXX..  ++++++++++++++++++++",
"++++++++++++++++++++++  ooooXXXXXXXX....  ++++++++++++++++++++++",
"++++++++++++++++++++++  ooooXXXXXXXX....  ++++++++++++++++++++++",
"++++++++++++++++++++++++    ........    ++++++++++++++++++++++++",
"++++++++++++++++++++++++    ........    ++++++++++++++++++++++++",
"++++++++++++++++++++++++++++        ++++++++++++++++++++++++++++",
"++++++++++++++++++++++++++++        ++++++++++++++++++++++++++++",
"++++++++++++++++++++++++++++++++++++++++++++++++++++++++++++++++",
"++++++++++++++++++++++++++++++++++++++++++++++++++++++++++++++++",
"++++++++++++++++++++++++++++++++++++++++++++++++++++++++++++++++",
"++++++++++++++++++++++++++++++++++++++++++++++++++++++++++++++++",
"++++++++++++++++++++++++++++++++++++++++++++++++++++++++++++++++",
"++++++++++++++++++++++++++++++++++++++++++++++++++++++++++++++++",
"++++++++++++++++++++++++++++++++++++++++++++++++++++++++++++++++",
"++++++++++++++++++++++++++++++++++++++++++++++++++++++++++++++++",
"++++++++++++++++++++++++++++++++++++++++++++++++++++++++++++++++",
"++++++++++++++++++++++++++++++++++++++++++++++++++++++++++++++++",
"++++++++++++++++++++++++++++++++++++++++++++++++++++++++++++++++",
"++++++++++++++++++++++++++++++++++++++++++++++++++++++++++++++++",
"++++++++++++++++++++++++++++++++++++++++++++++++++++++++++++++++",
"++++++++++++++++++++++++++++++++++++++++++++++++++++++++++++++++",
"++++++++++++++++++++++++++++++++++++++++++++++++++++++++++++++++",
"++++++++++++++++++++++++++++++++++++++++++++++++++++++++++++++++"
};
