/* XPM */
static char *result[] = {
/* columns rows colors chars-per-pixel */
"64 64 6 1 ",
"  c #110606",
". c #CD8000",
"X c #FFA000",
"o c yellow",
"O c white",
"+ c None",
/* pixels */
"++++++++++++++++++++++++++++++++++++++++++++++++++++++++++++++++",
"++++++++++++++++++++++++++++++++++++++++++++++++++++++++++++++++",
"++++++++++++++++++++++++++++++++++++++++++++++++++++++++++++++++",
"++++++++++++++++++++++++++++++++++++++++++++++++++++++++++++++++",
"++++++++++++++++++++++++++++++++++++++++++++++++++++++++++++++++",
"++++++++++++++++++++++++++++++++++++++++++++++++++++++++++++++++",
"++++++++++++++++++++++++++++++++++++++++++++++++++++++++++++++++",
"++++++++++++++++++++++++++++++++++++++++++++++++++++++++++++++++",
"++++++++++++++++++++++++++++++++++++++++++++++++++++++++++++++++",
"++++++++++++++++++++++++++++++++++++++++++++++++++++++++++++++++",
"++++++++++++++++++++++++++++++++++++++++++++++++++++++++++++++++",
"++++++++++++++++++++++++++++++++++++++++++++++++++++++++++++++++",
"++++++++++++++++++++++++++++++++++++++++++++++++++++++++++++++++",
"++++++++++++++++++++++++++++++++++++++++++++++++++++++++++++++++",
"++++++++++++++++++++++++++++++++++++++++++++++++++++++++++++++++",
"++++++++++++++++++++++++++++++++++++++++++++++++++++++++++++++++",
"++++++++++++++++++++++++++++        ++++++++++++++++++++++++++++",
"++++++++++++++++++++++++++++        ++++++++++++++++++++++++++++",
"++++++++++++++++++++++++    oooooooo  ++++++++++++++++++++++++++",
"++++++++++++++++++++++++    oooooooo  ++++++++++++++++++++++++++",
"++++++++++++++++++++++  ooooXXXXXXXXXX  ++++++++++++++++++++++++",
"++++++++++++++++++++++  ooooXXXXXXXXXX  ++++++++++++++++++++++++",
"++++++++++++++++++++  ooXXXXXXXXXXXXXX..  ++++++++++++++++++++++",
"++++++++++++++++++++  ooXXXXXXXXXXXXXX..  ++++++++++++++++++++++",
"++++++++++++++++++  ooXXXXXXXXooXXXXXXOOOO  ++++++++++++++++++++",
"++++++++++++++++++  ooXXXXXXXXooXXXXXXOOOO  ++++++++++++++++++++",
"++++++++++++++++++  ooXXXXXXooXX..XXOOOO..  ++++++++++++++++++++",
"++++++++++++++++++  ooXXXXXXooXX..XXOOOO..  ++++++++++++++++++++",
"++++++++++++++++++  ooXXXXooXXXX..OOOOXXOO  ++++++++++++++++++++",
"++++++++++++++++++  ooXXXXooXXXX..OOOOXXOO  ++++++++++++++++++++",
"++++++++++++++++++  ooXXXXXXooXXOOOOXXOO..  ++++++++++++++++++++",
"++++++++++++++++++  ooXXXXXXooXXOOOOXXOO..  ++++++++++++++++++++",
"++++++++++++++++++  ooXXXXXXooOOOOXXOOXX..  ++++++++++++++++++++",
"++++++++++++++++++  ooXXXXXXooOOOOXXOOXX..  ++++++++++++++++++++",
"++++++++++++++++++  ooXXXXXXOOOO..OOXXXX..  ++++++++++++++++++++",
"++++++++++++++++++  ooXXXXXXOOOO..OOXXXX..  ++++++++++++++++++++",
"++++++++++++++++++  ooXXXXOOOOXXOOXXXXXX..  ++++++++++++++++++++",
"++++++++++++++++++  ooXXXXOOOOXXOOXXXXXX..  ++++++++++++++++++++",
"++++++++++++++++++  ooXXOOOOXXOOXXXXXXXX..  ++++++++++++++++++++",
"++++++++++++++++++  ooXXOOOOXXOOXXXXXXXX..  ++++++++++++++++++++",
"++++++++++++++++++++  OOOOXXOOXXXXXXXX..  ++++++++++++++++++++++",
"++++++++++++++++++++  OOOOXXOOXXXXXXXX..  ++++++++++++++++++++++",
"++++++++++++++++++++++  ooOOXXXXXXXX..  ++++++++++++++++++++++++",
"++++++++++++++++++++++  ooOOXXXXXXXX..  ++++++++++++++++++++++++",
"++++++++++++++++++++++++    ........  ++++++++++++++++++++++++++",
"++++++++++++++++++++++++    ........  ++++++++++++++++++++++++++",
"++++++++++++++++++++++++++++        ++++++++++++++++++++++++++++",
"++++++++++++++++++++++++++++        ++++++++++++++++++++++++++++",
"++++++++++++++++++++++++++++++++++++++++++++++++++++++++++++++++",
"++++++++++++++++++++++++++++++++++++++++++++++++++++++++++++++++",
"++++++++++++++++++++++++++++++++++++++++++++++++++++++++++++++++",
"++++++++++++++++++++++++++++++++++++++++++++++++++++++++++++++++",
"++++++++++++++++++++++++++++++++++++++++++++++++++++++++++++++++",
"++++++++++++++++++++++++++++++++++++++++++++++++++++++++++++++++",
"++++++++++++++++++++++++++++++++++++++++++++++++++++++++++++++++",
"++++++++++++++++++++++++++++++++++++++++++++++++++++++++++++++++",
"++++++++++++++++++++++++++++++++++++++++++++++++++++++++++++++++",
"++++++++++++++++++++++++++++++++++++++++++++++++++++++++++++++++",
"++++++++++++++++++++++++++++++++++++++++++++++++++++++++++++++++",
"++++++++++++++++++++++++++++++++++++++++++++++++++++++++++++++++",
"++++++++++++++++++++++++++++++++++++++++++++++++++++++++++++++++",
"++++++++++++++++++++++++++++++++++++++++++++++++++++++++++++++++",
"++++++++++++++++++++++++++++++++++++++++++++++++++++++++++++++++",
"++++++++++++++++++++++++++++++++++++++++++++++++++++++++++++++++"
};
