/* XPM */
static char *result[] = {
/* columns rows colors chars-per-pixel */
"64 64 6 1 ",
"  c #110606",
". c #CD8000",
"X c #FFA000",
"o c yellow",
"O c white",
"+ c None",
/* pixels */
"++++++++++++++++++++++++++++++++++++++++++++++++++++++++++++++++",
"++++++++++++++++++++++++++++++++++++++++++++++++++++++++++++++++",
"++++++++++++++++++++++++++++++++++++++++++++++++++++++++++++++++",
"++++++++++++++++++++++++++++++++++++++++++++++++++++++++++++++++",
"++++++++++++++++++++++++++++++++++++++++++++++++++++++++++++++++",
"++++++++++++++++++++++++++++++++++++++++++++++++++++++++++++++++",
"++++++++++++++++++++++++++++++++++++++++++++++++++++++++++++++++",
"++++++++++++++++++++++++++++++++++++++++++++++++++++++++++++++++",
"++++++++++++++++++++++++++++++++++++++++++++++++++++++++++++++++",
"++++++++++++++++++++++++++++++++++++++++++++++++++++++++++++++++",
"++++++++++++++++++++++++++++++++++++++++++++++++++++++++++++++++",
"++++++++++++++++++++++++++++++++++++++++++++++++++++++++++++++++",
"++++++++++++++++++++++++++++++++++++++++++++++++++++++++++++++++",
"++++++++++++++++++++++++++++++++++++++++++++++++++++++++++++++++",
"++++++++++++++++++++++++++++++++++++++++++++++++++++++++++++++++",
"++++++++++++++++++++++++++++++++++++++++++++++++++++++++++++++++",
"++++++++++++++++++++++++++++        ++++++++++++++++++++++++++++",
"++++++++++++++++++++++++++++        ++++++++++++++++++++++++++++",
"++++++++++++++++++++++++++  OOOOooOO  ++++++++++++++++++++++++++",
"++++++++++++++++++++++++++  OOOOooOO  ++++++++++++++++++++++++++",
"++++++++++++++++++++++++  OOOOXXOOXX..  ++++++++++++++++++++++++",
"++++++++++++++++++++++++  OOOOXXOOXX..  ++++++++++++++++++++++++",
"++++++++++++++++++++++++  OOXXOOXXXX..  ++++++++++++++++++++++++",
"++++++++++++++++++++++++  OOXXOOXXXX..  ++++++++++++++++++++++++",
"++++++++++++++++++++++  OOXXOOooooXXXX..  ++++++++++++++++++++++",
"++++++++++++++++++++++  OOXXOOooooXXXX..  ++++++++++++++++++++++",
"++++++++++++++++++++++  ooOOXXoo..XXXX..  ++++++++++++++++++++++",
"++++++++++++++++++++++  ooOOXXoo..XXXX..  ++++++++++++++++++++++",
"++++++++++++++++++++++  OOXXoooo..XXXX..  ++++++++++++++++++++++",
"++++++++++++++++++++++  OOXXoooo..XXXX..  ++++++++++++++++++++++",
"++++++++++++++++++++++  ooXXXXoo..XXXX..  ++++++++++++++++++++++",
"++++++++++++++++++++++  ooXXXXoo..XXXX..  ++++++++++++++++++++++",
"++++++++++++++++++++++  ooXXXXoo..XXXX..  ++++++++++++++++++++++",
"++++++++++++++++++++++  ooXXXXoo..XXXX..  ++++++++++++++++++++++",
"++++++++++++++++++++++  ooXXXXoo..XXXX..  ++++++++++++++++++++++",
"++++++++++++++++++++++  ooXXXXoo..XXXX..  ++++++++++++++++++++++",
"++++++++++++++++++++++  ooXXXXoo..XXXX..  ++++++++++++++++++++++",
"++++++++++++++++++++++  ooXXXXoo..XXXX..  ++++++++++++++++++++++",
"++++++++++++++++++++++  ooXXXX....XXXX..  ++++++++++++++++++++++",
"++++++++++++++++++++++  ooXXXX....XXXX..  ++++++++++++++++++++++",
"++++++++++++++++++++++  ooXXXXXXXXXXXX..  ++++++++++++++++++++++",
"++++++++++++++++++++++  ooXXXXXXXXXXXX..  ++++++++++++++++++++++",
"++++++++++++++++++++++++  ooXXXXXXXX..  ++++++++++++++++++++++++",
"++++++++++++++++++++++++  ooXXXXXXXX..  ++++++++++++++++++++++++",
"++++++++++++++++++++++++++  ........  ++++++++++++++++++++++++++",
"++++++++++++++++++++++++++  ........  ++++++++++++++++++++++++++",
"++++++++++++++++++++++++++++        ++++++++++++++++++++++++++++",
"++++++++++++++++++++++++++++        ++++++++++++++++++++++++++++",
"++++++++++++++++++++++++++++++++++++++++++++++++++++++++++++++++",
"++++++++++++++++++++++++++++++++++++++++++++++++++++++++++++++++",
"++++++++++++++++++++++++++++++++++++++++++++++++++++++++++++++++",
"++++++++++++++++++++++++++++++++++++++++++++++++++++++++++++++++",
"++++++++++++++++++++++++++++++++++++++++++++++++++++++++++++++++",
"++++++++++++++++++++++++++++++++++++++++++++++++++++++++++++++++",
"++++++++++++++++++++++++++++++++++++++++++++++++++++++++++++++++",
"++++++++++++++++++++++++++++++++++++++++++++++++++++++++++++++++",
"++++++++++++++++++++++++++++++++++++++++++++++++++++++++++++++++",
"++++++++++++++++++++++++++++++++++++++++++++++++++++++++++++++++",
"++++++++++++++++++++++++++++++++++++++++++++++++++++++++++++++++",
"++++++++++++++++++++++++++++++++++++++++++++++++++++++++++++++++",
"++++++++++++++++++++++++++++++++++++++++++++++++++++++++++++++++",
"++++++++++++++++++++++++++++++++++++++++++++++++++++++++++++++++",
"++++++++++++++++++++++++++++++++++++++++++++++++++++++++++++++++",
"++++++++++++++++++++++++++++++++++++++++++++++++++++++++++++++++"
};
