/* XPM */
static char *result[] = {
/* columns rows colors chars-per-pixel */
"64 64 11 1 ",
"  c black",
". c #572D22",
"X c #AB381B",
"o c #AB5C1B",
"O c #AB6918",
"+ c #FF7F27",
"@ c #B97A57",
"# c #F75B63",
"$ c #F7AB79",
"% c #DBA88C",
"& c None",
/* pixels */
"&&&&&&&&&&&&&&&&&&&&&&&&&&&&&&&&&&&&&&&&&&&&&&&&&&&&&&&&&&&&&&&&",
"&&&&&&&&&&&&&&&&&&&&&&&&&&&&&&&&&&&&&&&&&&&&&&&&&&&&&&&&&&&&&&&&",
"&&&&&&&&&&&&&&&&&&&&&&&&&&&&&&&&&&&&&&&&&&&&&&&&&&&&&&&&&&&&&&&&",
"&&&&&&&&&&&&&&&&&&&&&&&&&&&&&&&&&&&&&&&&&&&&&&&&&&&&&&&&&&&&&&&&",
"&&&&&&&&&&&&&&&&&&&&&&&&&&&&&&&&&&&&&&&&&&&&&&&&&&&&&&&&&&&&&&&&",
"&&&&&&&&&&&&&&&&&&&&&&&&&&&&&&&&&&&&&&&&&&&&&&&&&&&&&&&&&&&&&&&&",
"&&&&&&&&&&&&&&&&&&&&&&&&&&&&&&&&&&&&&&&&&&&&&&&&&&&&&&&&&&&&&&&&",
"&&&&&&&&&&&&&&&&&&&&&&&&&&&&&&&&&&&&&&&&&&&&&&&&&&&&&&&&&&&&&&&&",
"&&&&&&&&&&&&&&&&&&&&&&&&&&&&&&&&&&&&&&&&&&&&&&&&&&&&&&&&&&&&&&&&",
"&&&&&&&&&&&&&&&&&&&&&&&&&&&&&&&&&&&&&&&&&&&&&&&&&&&&&&&&&&&&&&&&",
"&&&&&&&&&&&&&&&&&&&&&&&&&&&&&&&&&&&&&&&&&&&&&&&&&&&++oo&&&&&&&&&",
"&&&&&&&&&&&&&&&&&&&&&&&&&&&&&&&&&&&&&&&&&&&&&&&&&&&++oo&&&&&&&&&",
"&&&&&&&&&&&&&&&&&&&&&&&&&&&&&&&&&&&&&&&&&&&&&&&&&&&++oo&&&&&&&&&",
"&&&&&&&&&&&&&&&&&&&&&&&&&&&&&&&&&&&&&&&&&&&&&&&&&&&++oo&&&&&&&&&",
"&&&&&&&&&&&&&&&&&&&&&&&&&&&&&&&&&&&&&&&&&&&&&&&&&&&++oo&&&&&&&&&",
"&&&&&&&&&&&&&&&&&&&&&&&&&&&&&&&&&&&&&&&&&&&&&&&&&&&++oo&&&&&&&&&",
"&&&&&&&&&&&&&&&@@&&&&&&&&@@&&&&&&&&&&&&&&&&&&&&&&&&++oo&&&&&&&&&",
"&&&&&&&&&&&&&&&@@&&&&&&&&@@&&&&&&&&&&&&&&&&&&&&&&&&++oo&&&&&&&&&",
"&&&&&&&&&&&&&@@XX@@&&&&@@XX@@&&&&&&&&&&&&&&&&&&&&&&++oo&&&&&&&&&",
"&&&&&&&&&&&&&@@XX@@&&&&@@XX@@&&&&&&&&&&&&&&&&&&&&&&++oo&&&&&&&&&",
"&&&&&&&&&&&&&@@++++++++++XX@@&&&&&&&&&&&&&&&&&&&&&&++oo&&&&&&&&&",
"&&&&&&&&&&&&&@@++++++++++XX@@&&&&&&&&&&&&&&&&&&&&&&++oo&&&&&&&&&",
"&&&&&&&&&&&&&++++++++++++++++@@&&&&&&&&&&&&&&&&&&++++oo&&&&&&&&&",
"&&&&&&&&&&&&&++++++++++++++++@@&&&&&&&&&&&&&&&&&&++++oo&&&&&&&&&",
"&&&&&&&&&..++  ++++++++  ++++......&&&&&&&&&&&&&&++oo&&&&&&&&&&&",
"&&&&&&&&&..++  ++++++++  ++++......&&&&&&&&&&&&&&++oo&&&&&&&&&&&",
"&&&&&&&&&&&+++++++..+++++++++++OO&&&&&&&&&&&&&&++++oo&&&&&&&&&&&",
"&&&&&&&&&&&+++++++..+++++++++++OO&&&&&&&&&&&&&&++++oo&&&&&&&&&&&",
"&&&&&&&&&..+++++..##..+++++++......++++++++++++++OO&&&&&&&&&&&&&",
"&&&&&&&&&..+++++..##..+++++++......++++++++++++++OO&&&&&&&&&&&&&",
"&&&&&&&&&&&+++++++##+++++++++++XX++++++++++++++OO&&&&&&&&&&&&&&&",
"&&&&&&&&&&&+++++++##+++++++++++XX++++++++++++++OO&&&&&&&&&&&&&&&",
"&&&&&&&&&&&&&++++++++++++++++XX++++++++++++++$$&&&&&&&&&&&&&&&&&",
"&&&&&&&&&&&&&++++++++++++++++XX++++++++++++++$$&&&&&&&&&&&&&&&&&",
"&&&&&&&&&&&&&&&++++++++++++++++++++++++++++++$$&&&&&&&&&&&&&&&&&",
"&&&&&&&&&&&&&&&++++++++++++++++++++++++++++++$$&&&&&&&&&&&&&&&&&",
"&&&&&&&&&&&&&&&+++++$$+++++++++++++++++++++++$$&&&&&&&&&&&&&&&&&",
"&&&&&&&&&&&&&&&+++++$$+++++++++++++++++++++++$$&&&&&&&&&&&&&&&&&",
"&&&&&&&&&&&&&&&++$$$$$$++++++++++++++++++++++++@@&&&&&&&&&&&&&&&",
"&&&&&&&&&&&&&&&++$$$$$$++++++++++++++++++++++++@@&&&&&&&&&&&&&&&",
"&&&&&&&&&&&&&&&OO$$$$$$$$++++++++++++++++++++++@@&&&&&&&&&&&&&&&",
"&&&&&&&&&&&&&&&OO$$$$$$$$++++++++++++++++++++++@@&&&&&&&&&&&&&&&",
"&&&&&&&&&&&&&&&&&oo$$$$$$++++++++++++++++++++++@@&&&&&&&&&&&&&&&",
"&&&&&&&&&&&&&&&&&oo$$$$$$++++++++++++++++++++++@@&&&&&&&&&&&&&&&",
"&&&&&&&&&&&&&&&&&++oooooo++++++%%%%%%%%%%%%++++@@&&&&&&&&&&&&&&&",
"&&&&&&&&&&&&&&&&&++oooooo++++++%%%%%%%%%%%%++++@@&&&&&&&&&&&&&&&",
"&&&&&&&&&&&&&&&&&&&OOOO&&&&+++++&&&&&&&oooo&&++@@&&&&&&&&&&&&&&&",
"&&&&&&&&&&&&&&&&&&&OOOO&&&&+++++&&&&&&&oooo&&++@@&&&&&&&&&&&&&&&",
"&&&&&&&&&&&&&&&&&&&&&&&&&&&&&&&&&&&&&&&&&oo&&&&@@&&&&&&&&&&&&&&&",
"&&&&&&&&&&&&&&&&&&&&&&&&&&&&&&&&&&&&&&&&&oo&&&&@@&&&&&&&&&&&&&&&",
"&&&&&&&&&&&&&&&&&&&&&&&&&&&&&&&&&&&&&&&&&&&&&&&&&&&&&&&&&&&&&&&&",
"&&&&&&&&&&&&&&&&&&&&&&&&&&&&&&&&&&&&&&&&&&&&&&&&&&&&&&&&&&&&&&&&",
"&&&&&&&&&&&&&&&&&&&&&&&&&&&&&&&&&&&&&&&&&&&&&&&&&&&&&&&&&&&&&&&&",
"&&&&&&&&&&&&&&&&&&&&&&&&&&&&&&&&&&&&&&&&&&&&&&&&&&&&&&&&&&&&&&&&",
"&&&&&&&&&&&&&&&&&&&&&&&&&&&&&&&&&&&&&&&&&&&&&&&&&&&&&&&&&&&&&&&&",
"&&&&&&&&&&&&&&&&&&&&&&&&&&&&&&&&&&&&&&&&&&&&&&&&&&&&&&&&&&&&&&&&",
"&&&&&&&&&&&&&&&&&&&&&&&&&&&&&&&&&&&&&&&&&&&&&&&&&&&&&&&&&&&&&&&&",
"&&&&&&&&&&&&&&&&&&&&&&&&&&&&&&&&&&&&&&&&&&&&&&&&&&&&&&&&&&&&&&&&",
"&&&&&&&&&&&&&&&&&&&&&&&&&&&&&&&&&&&&&&&&&&&&&&&&&&&&&&&&&&&&&&&&",
"&&&&&&&&&&&&&&&&&&&&&&&&&&&&&&&&&&&&&&&&&&&&&&&&&&&&&&&&&&&&&&&&",
"&&&&&&&&&&&&&&&&&&&&&&&&&&&&&&&&&&&&&&&&&&&&&&&&&&&&&&&&&&&&&&&&",
"&&&&&&&&&&&&&&&&&&&&&&&&&&&&&&&&&&&&&&&&&&&&&&&&&&&&&&&&&&&&&&&&",
"&&&&&&&&&&&&&&&&&&&&&&&&&&&&&&&&&&&&&&&&&&&&&&&&&&&&&&&&&&&&&&&&",
"&&&&&&&&&&&&&&&&&&&&&&&&&&&&&&&&&&&&&&&&&&&&&&&&&&&&&&&&&&&&&&&&"
};
