/* XPM */
static char *result[] = {
/* columns rows colors chars-per-pixel */
"64 64 9 1 ",
"  c black",
". c #454445",
"X c #5BA871",
"o c #FFC90E",
"O c #F7868D",
"+ c #C3C3C3",
"@ c #D6D3D6",
"# c #EDEAED",
"$ c None",
/* pixels */
"$$$$$$$$$$$$$$$$$$$$$$$$$$$$$$$$$$$$$$$$$$$$$$$$$$$$$$$$$$$$$$$$",
"$$$$$$$$$$$$$$$$$$$$$$$$$$$$$$$$$$$$$$$$$$$$$$$$$$$$$$$$$$$$$$$$",
"$$$$$$$$$$$$$$$$$$$$$$$$$$$$$$$$$$$$$$$$$$$$$$$$$$$$$$$$$$$$$$$$",
"$$$$$$$$$$$$$$$$$$$$$$$$$$$$$$$$$$$$$$$$$$$$$$$$$$$$$$$$$$$$$$$$",
"$$$$$$$$$$$$$$$$$$$$$$$$$$$$$$$$$$$$$$$$$$$$$$$$$$$$$$$$$$$$$$$$",
"$$$$$$$$$$$$$$$$$$$$$$$$$$$$$$$$$$$$$$$$$$$$$$$$$$$$$$$$$$$$$$$$",
"$$$$$$$$$$$$$$$$$$$$$$$$$$$$$$$$$$$$$$$$$$$$$$$$$$$$$$$$$$$$$$$$",
"$$$$$$$$$$$$$$$$$$$$$$$$$$$$$$$$$$$$$$$$$$$$$$$$$$$$$$$$$$$$$$$$",
"$$$$$$$$$$$$$$$$$$$$$$$$$$$$$$$$$$$$$$$$$$$$$$$$$$$$$$$$$$$$$$$$",
"$$$$$$$$$$$$$$$$$$$$$$$$$$$$$$$$$$$$$$$$$$$$$$$$$$$$$$$$$$$$$$$$",
"$$$$$$$$$$$$$$$$$$$$$$$$$$$$$$$$$$$$$$$$$$$$$$$$$$$$$$$$$$$$$$$$",
"$$$$$$$$$$$$$$$$$$$$$$$$$$$$$$$$$$$$$$$$$$$$$$$$$$$$$$$$$$$$$$$$",
"$$$$$$$$$$$$$$$$$$$$$$$$$$$$$$$$$$$$$$$$$$$$$$$$$$$$$$$$$$$$$$$$",
"$$$$$$$$$$$$$$$$$$$$$$$$$$$$$$$$$$$$$$$$$$$$$$$$$$$$$$$$$$$$$$$$",
"$$$$$$$$$$$$$$$$$$$$$$$$$$++++++++++++$$$$$$$$$$$$$$$$$$$$$$$$$$",
"$$$$$$$$$$$$$$$$$$$$$$$$$$++++++++++++$$$$$$$$$$$$$$$$$$$$$$$$$$",
"$$$$$$$$$$$$$$$$$$$$$$++++++##########++++$$$$$$$$$$$$$$$$$$$$$$",
"$$$$$$$$$$$$$$$$$$$$$$++++++##########++++$$$$$$$$$$$$$$$$$$$$$$",
"$$$$$$$$$$$$$$$$$$$$++++################++++$$$$$$$$$$$$$$$$$$$$",
"$$$$$$$$$$$$$$$$$$$$++++################++++$$$$$$$$$$$$$$$$$$$$",
"$$$$$$$$$$$$$$$$$$++####################++++##$$$$$$$$$$$$$$$$$$",
"$$$$$$$$$$$$$$$$$$++################++####++##$$$$$$$$$$$$$$$$$$",
"$$$$$$$$$$$$$$$$$$++################++####++##$$$$$$$$$$$$$$$$$$",
"$$$$$$$$$$$$$$$$$$++################++++++++##$$$$$$$$$$$$$$$$$$",
"$$$$$$$$$$$$$$$$++##################++++++++##$$$$$$$$$$$$$$$$$$",
"$$$$$$$$$$$$$$$$++############################$$$$$$$$$$$$$$$$$$",
"$$$$$$$$$$$$$$$$++##############################$$$$$$$$$$XX$$$$",
"$$$$$$$$$$$$$$$$++##############################$$$$$$$$$$XX$$$$",
"$$$$$$$$$$$$$$$$++########    ############    ##$$$$$$$$XX$$$$$$",
"$$$$$$$$$$$$$$$$++########    ############    ##$$$$$$$$XX$$$$$$",
"$$$$$$$$$$$$$$$$++########    ############    ##$$$$$$XX$$$$$$$$",
"$$$$$$$$$$$$$$$$++########    ############    ##$$$$$$XX$$$$$$$$",
"$$$$$$$$$$$$$$$$++######OO##########  ########OO$$$$$$XX$$$$$$$$",
"$$$$$$$$$$$$$$$$++######OO##########  ########OO$$$$$$XX$$$$$$$$",
"$$$$$$$$$$$$$$++++########  ####################  $$$$$$XX$$$$$$",
"$$$$$$$$$$$$$$++++########  ####################  $$$$$$XX$$$$$$",
"$$$$$$$$$$$$$$++############  oo##################  $$XX$$$$$$$$",
"$$$$$$$$$$$$$$++############  oo##################  $$XX$$$$$$$$",
"$$$$$$$$$$$$$$++######  ####  oo......................$$$$$$$$$$",
"$$$$$$$$$$$$$$++######  ####  oo......................$$$$$$$$$$",
"$$$$$$$$++$$++##########    ##oo##############$$$$$$$$$$$$$$$$$$",
"$$$$$$$$++$$++##########    ##oo##############$$$$$$$$$$$$$$$$$$",
"$$$$$$$$$$++##################################@@$$$$$$$$$$$$$$$$",
"$$$$$$$$$$++##################################@$$$$$$$$$$$$$$$$$",
"$$$$$$$$$$$$++##############################$$$$$$$$$$$$$$$$$$$$",
"$$$$$$$$$$$$++##############################$$$$$$$$$$$$$$$$$$$$",
"$$$$$$$$$$$$++############################$$$$$$$$$$$$$$$$$$$$$$",
"$$$$$$$$$$$$++############################$$$$$$$$$$$$$$$$$$$$$$",
"$$$$$$$$$$$$$$++++++######++####++######++$$$$$$$$$$$$$$$$$$$$$$",
"$$$$$$$$$$$$$$++++++######++####++######++$$$$$$$$$$$$$$$$$$$$$$",
"$$$$$$$$$$$$$$$$$$++++++++##++++++++$$++$$$$$$$$$$$$$$$$$$$$$$$$",
"$$$$$$$$$$$$$$$$$$++++++++##++++++++$$++$$$$$$$$$$$$$$$$$$$$$$$$",
"$$$$$$$$$$$$$$$$$$$$$$$$$$$$++$$$$$$$$$$$$$$$$$$$$$$$$$$$$$$$$$$",
"$$$$$$$$$$$$$$$$$$$$$$$$$$$$++$$$$$$$$$$$$$$$$$$$$$$$$$$$$$$$$$$",
"$$$$$$$$$$$$$$$$$$$$$$$$$$$$$$$$$$$$$$$$$$$$$$$$$$$$$$$$$$$$$$$$",
"$$$$$$$$$$$$$$$$$$$$$$$$$$$$$$$$$$$$$$$$$$$$$$$$$$$$$$$$$$$$$$$$",
"$$$$$$$$$$$$$$$$$$$$$$$$$$$$$$$$$$$$$$$$$$$$$$$$$$$$$$$$$$$$$$$$",
"$$$$$$$$$$$$$$$$$$$$$$$$$$$$$$$$$$$$$$$$$$$$$$$$$$$$$$$$$$$$$$$$",
"$$$$$$$$$$$$$$$$$$$$$$$$$$$$$$$$$$$$$$$$$$$$$$$$$$$$$$$$$$$$$$$$",
"$$$$$$$$$$$$$$$$$$$$$$$$$$$$$$$$$$$$$$$$$$$$$$$$$$$$$$$$$$$$$$$$",
"$$$$$$$$$$$$$$$$$$$$$$$$$$$$$$$$$$$$$$$$$$$$$$$$$$$$$$$$$$$$$$$$",
"$$$$$$$$$$$$$$$$$$$$$$$$$$$$$$$$$$$$$$$$$$$$$$$$$$$$$$$$$$$$$$$$",
"$$$$$$$$$$$$$$$$$$$$$$$$$$$$$$$$$$$$$$$$$$$$$$$$$$$$$$$$$$$$$$$$",
"$$$$$$$$$$$$$$$$$$$$$$$$$$$$$$$$$$$$$$$$$$$$$$$$$$$$$$$$$$$$$$$$"
};
