/* XPM */
static char *result[] = {
/* columns rows colors chars-per-pixel */
"64 64 10 1 ",
"  c black",
". c #454445",
"X c gray50",
"o c #5BA871",
"O c #FFC90E",
"+ c #F7868D",
"@ c #C3C3C3",
"# c #D6D3D6",
"$ c #EDEAED",
"% c None",
/* pixels */
"%%%%%%%%%%%%%%%%%%%%%%%%%%%%%%%%%%%%%%%%%%%%%%%%%%%%%%%%%%%%%%%%",
"%%%%%%%%%%%%%%%%%%%%%%%%%%%%%%%%%%%%%%%%%%%%%%%%%%%%%%%%%%%%%%%%",
"%%%%%%%%%%%%%%%%%%%%%%%%%%%%%%%%%%%%%%%%%%%%%%%%%%%%%%%%%%%%%%%%",
"%%%%%%%%%%%%%%%%%%%%%%%%%%%%%%%%%%%%%%%%%%%%%%%%%%%%%%%%%%%%%%%%",
"%%%%%%%%%%%%%%%%%%%%%%%%%%%%%%%%%%%%%%%%%%%%%%%%%%%%%%%%%%%%%%%%",
"%%%%%%%%%%%%%%%%%%%%%%%%%%%%%%%%%%%%%%%%%%%%%%%%%%%%%%%%%%%%%%%%",
"%%%%%%%%%%%%%%%%%%%%%%%%%%%%%%%%%%%%%%%%%%%%%%%%%%%%%%%%%%%%%%%%",
"%%%%%%%%%%%%%%%%%%%%%%%%%%%%%%%%%%%%%%%%%%%%%%%%%%%%%%%%%%%%%%%%",
"%%%%%%%%%%%%%%%%%%%%%%%%%%%%%%%%%%%%%%%%%%%%%%%%%%%%%%%%%%%%%%%%",
"%%%%%%%%%%%%%%%%%%%%%%%%%%%@@@@@@@@@@@@%%%%%%%%%%%%%%%%%%%%%%%%%",
"%%%%%%%%%%%%%%%%%%%%%%%%%%%@@@@@@@@@@@@%%%%%%%%%%%%%%%%%%%%%%%%%",
"%%%%%%%%%%%%%%%%%%%%%%%@@@@@@$$$$$$$$$$@@@@%%%%%%%%%%%%%%%%%%%%%",
"%%%%%%%%%%%%%%%%%%%%%%%@@@@@@$$$$$$$$$$@@@@%%%%%%%%%%%%%%%%%%%%%",
"%%%%%%%%%%%%%%%%%%%%%@@@@$$$$$$$$$$$$$$$$@@@@%%%%%%%%%%%%%%%%%%%",
"%%%%%%%%%%%%%%%%%%%%%@@@@$$$$$$$$$$$$$$$$@@@@%%%%%%%%%%%%%%%%%%%",
"%%%%%%%%%%%%%%%%%%%@@$$$$$$$$$$$$$$$$$$$$@@@@$$%%%%%%%%%%%%%%%%%",
"%%%%%%%%%%%%%%%%%%%@@$$$$$$$$$$$$$$$$@@$$$$@@$$%%%%%%%%%%%%%%%%%",
"%%%%%%%%%%%%%%%%%%%@@$$$$$$$$$$$$$$$$@@$$$$@@$$%%%%%%%%%%%%%%%%%",
"%%%%%%%%%%%%%%%%%%%@@$$$$$$$$$$$$$$$$@@@@@@@@$$%%%%%%%%%%%%%%%%%",
"%%%%%%%%%%%%%%%%%@@$$$$$$$$$$$$$$$$$$@@@@@@@@$$%%%%%%%%%%%%%%%%%",
"%%%%%%%%%%%%%%%%%@@$$$$$$$$$$$$$$$$$$$$$$$$$$$$%%%%%%%%%%%%%%%%%",
"%%%%%%%%%%%%%%%%%@@$$$$$$$$$$$$$$$$$$$$$$$$$$$$$$%%%%%%%%%%oo%%%",
"%%%%%%%%%%%%%%%%%@@$$$$$$$$$$$$$$$$$$$$$$$$$$$$$$%%%%%%%%%%oo%%%",
"%%%%%%%%%%%%%%%%%@@$$$$$$$$    $$$$$$$$$$$$    $$%%%%%%%%oo%%%%%",
"%%%%%%%%%%%%%%%%%@@$$$$$$$$    $$$$$$$$$$$$    $$%%%%%%%%oo%%%%%",
"%%%%%%%%%%%%%%%%%@@$$$$$$$$    $$$$$$$$$$$$    $$%%%%%%%%oo%%%%%",
"%%%%%%%%%%%%%%%%%@@$$$$$$$$    $$$$$$$$$$$$    $$%%%%%%%%oo%%%%%",
"%%%%%%%%%%%%%%%%%@@$$$$$$++$$$$$$$$$$  $$$$$$$$++%%%%%%%%oo%%%%%",
"%%%%%%%%%%%%%%%%%@@$$$$$$++$$$$$$$$$$  $$$$$$$$++%%%%%%%%oo%%%%%",
"%%%%%%%%%%%%%%%@@@@$$$$$$$$  $$$$$$$$$$$$$$$$$$$$  %%%%oo%%%%%%%",
"%%%%%%%%%%%%%%%@@@@$$$$$$$$  $$$$$$$$$$$$$$$$$$$$  %%%%oo%%%%%%%",
"%%%%%%%%%%%%%%%@@$$$$$$$$$$$$  OO$$$$$$$$$$$$$$$$$$  %%oo%%%%%%%",
"%%%%%%%%%%%%%%%@@$$$$$$$$$$$$  OO$$$$$$$$$$$$$$$$$$  %%oo%%%%%%%",
"%%%%%%%%%%%%%%%@@$$$$$$  $$$$  OO......................%%%%%%%%%",
"%%%%%%%%%%%%%%%@@$$$$$$  $$$$  OO......................%%%%%%%%%",
"%%%%%%%%%@@%%@@$$$$$$$$$$    $$OO$$$$$$$$$$$$$$%%%%%%%%%%%%%%%%%",
"%%%%%%%%%@@%%@@$$$$$$$$$$    $$OO$$$$$$$$$$$$$$%%%%%%%%%%%%%%%%%",
"%%%%%%%%%%%@@$$$$$$$$$$$$$$$$$$$$$$$$$$$$$$$$$$##%%%%%%%%%%%%%%%",
"%%%%%%%%%%%@@$$$$$$$$$$$$$$$$$$$$$$$$$$$$$$$$$$#%%%%%%%%%%%%%%%%",
"%%%%%%%%%%%%%@@$$$$$$$$$$$$$$$$$$$$$$$$$$$$$$%%%%%%%%%%%%%%%%%%%",
"%%%%%%%%%%%%%@@$$$$$$$$$$$$$$$$$$$$$$$$$$$$$$%%%%%%%%%%%%%%%%%%%",
"%%%%%%%%%%%%%@@$$$$$$$$$$$$$$$$$$$$$$$$$$$$%%%%%%%%%%%%%%%%%%%%%",
"%%%%%%%%%%%%%@@$$$$$$$$$$$$$$$$$$$$$$$$$$$$%%%%%%%%%%%%%%%%%%%%%",
"%%%%%%%%%%%%%%%@@@@@@$$$$$$@@$$$$@@$$$$$$XX%%%%%%%%%%%%%%%%%%%%%",
"%%%%%%%%%%%%%%%@@@@@@$$$$$$@@$$$$@@$$$$$$XX%%%%%%%%%%%%%%%%%%%%%",
"%%%%%%%%%%%%%%%%%%%@@@@@@@@$$@@@@@@@@%%@@%%%%%%%%%%%%%%%%%%%%%%%",
"%%%%%%%%%%%%%%%%%%%@@@@@@@@$$@@@@@@@@%%@@%%%%%%%%%%%%%%%%%%%%%%%",
"%%%%%%%%%%%%%%%%%%%%%%%%%%%%%@@%%%%%%%%%%%%%%%%%%%%%%%%%%%%%%%%%",
"%%%%%%%%%%%%%%%%%%%%%%%%%%%%%@@%%%%%%%%%%%%%%%%%%%%%%%%%%%%%%%%%",
"%%%%%%%%%%%%%%%%%%%%%%%%%%%%%%%%%%%%%%%%%%%%%%%%%%%%%%%%%%%%%%%%",
"%%%%%%%%%%%%%%%%%%%%%%%%%%%%%%%%%%%%%%%%%%%%%%%%%%%%%%%%%%%%%%%%",
"%%%%%%%%%%%%%%%%%%%%%%%%%%%%%%%%%%%%%%%%%%%%%%%%%%%%%%%%%%%%%%%%",
"%%%%%%%%%%%%%%%%%%%%%%%%%%%%%%%%%%%%%%%%%%%%%%%%%%%%%%%%%%%%%%%%",
"%%%%%%%%%%%%%%%%%%%%%%%%%%%%%%%%%%%%%%%%%%%%%%%%%%%%%%%%%%%%%%%%",
"%%%%%%%%%%%%%%%%%%%%%%%%%%%%%%%%%%%%%%%%%%%%%%%%%%%%%%%%%%%%%%%%",
"%%%%%%%%%%%%%%%%%%%%%%%%%%%%%%%%%%%%%%%%%%%%%%%%%%%%%%%%%%%%%%%%",
"%%%%%%%%%%%%%%%%%%%%%%%%%%%%%%%%%%%%%%%%%%%%%%%%%%%%%%%%%%%%%%%%",
"%%%%%%%%%%%%%%%%%%%%%%%%%%%%%%%%%%%%%%%%%%%%%%%%%%%%%%%%%%%%%%%%",
"%%%%%%%%%%%%%%%%%%%%%%%%%%%%%%%%%%%%%%%%%%%%%%%%%%%%%%%%%%%%%%%%",
"%%%%%%%%%%%%%%%%%%%%%%%%%%%%%%%%%%%%%%%%%%%%%%%%%%%%%%%%%%%%%%%%",
"%%%%%%%%%%%%%%%%%%%%%%%%%%%%%%%%%%%%%%%%%%%%%%%%%%%%%%%%%%%%%%%%",
"%%%%%%%%%%%%%%%%%%%%%%%%%%%%%%%%%%%%%%%%%%%%%%%%%%%%%%%%%%%%%%%%",
"%%%%%%%%%%%%%%%%%%%%%%%%%%%%%%%%%%%%%%%%%%%%%%%%%%%%%%%%%%%%%%%%",
"%%%%%%%%%%%%%%%%%%%%%%%%%%%%%%%%%%%%%%%%%%%%%%%%%%%%%%%%%%%%%%%%"
};
