/* XPM */
static char *result[] = {
/* columns rows colors chars-per-pixel */
"64 64 11 1 ",
"  c black",
". c #454445",
"X c gray50",
"o c #4CAF50",
"O c #5BA871",
"+ c #FFC90E",
"@ c #F7868D",
"# c #C3C3C3",
"$ c #D6D3D6",
"% c #EDEAED",
"& c None",
/* pixels */
"&&&&&&&&&&&&&&&&&&&&&&&&&&&&&&&&&&&&&&&&&&&&&&&&&&&&&&&&&&&&&&&&",
"&&&&&&&&&&&&&&&&&&&&&&&&&&&&&&&&&&&&&&&&&&&&&&&&&&&&&&&&&&&&&&&&",
"&&&&&&&&&&&&&&&&&&&&&&&&&&&&&&&&&&&&&&&&&&&&&&&&&&&&&&&&&&&&&&&&",
"&&&&&&&&&&&&&&&&&&&&&&&&&&&&&&&&&&&&&&&&&&&&&&&&&&&&&&&&&&&&&&&&",
"&&&&&&&&&&&&&&&&&&&&&&&&&&&&&&&&&&&&&&&&&&&&&&&&&&&&&&&&&&&&&&&&",
"&&&&&&&&&&&&&&&&&&&&&&&&&&&############&&&&&&&&&&&&&&&&&&&&&&&&&",
"&&&&&&&&&&&&&&&&&&&&&&&&&&&############&&&&&&&&&&&&&&&&&&&&&&&&&",
"&&&&&&&&&&&&&&&&&&&&&&&######%%%%%%%%%%####&&&&&&&&&&&&&&&&&&&&&",
"&&&&&&&&&&&&&&&&&&&&&&&######%%%%%%%%%%####&&&&&&&&&&&&&&&&&&&&&",
"&&&&&&&&&&&&&&&&&&&&&####%%%%%%%%%%%%%%%%####&&&&&&&&&&&&&&&&&&&",
"&&&&&&&&&&&&&&&&&&&&&####%%%%%%%%%%%%%%%%####&&&&&&&&&&&&&&&&&&&",
"&&&&&&&&&&&&&&&&&&&##%%%%%%%%%%%%%%%%%%%%####%%&&&&&&&&&&&&&&&&&",
"&&&&&&&&&&&&&&&&&&&##%%%%%%%%%%%%%%%%##%%%%##%%&&&&&&&&&&&&&&&&&",
"&&&&&&&&&&&&&&&&&&&##%%%%%%%%%%%%%%%%##%%%%##%%&&&&&&&&&&&&&&&&&",
"&&&&&&&&&&&&&&&&&&&##%%%%%%%%%%%%%%%%########%%&&&&&&&&&&&&&&&&&",
"&&&&&&&&&&&&&&&&&##%%%%%%%%%%%%%%%%%%########%%&&&&&&&&&&&&&&&&&",
"&&&&&&&&&&&&&&&&&##%%%%%%%%%%%%%%%%%%%%%%%%%%%%&&&&&&&&&&&&&&&&&",
"&&&&&&&&&&&&&&&&&##%%%%%%%%%%%%%%%%%%%%%%%%%%%%%%&&&&&&oo&&&&&&&",
"&&&&&&&&&&&&&&&&&##%%%%%%%%%%%%%%%%%%%%%%%%%%%%%%&&&&&&oo&&&&&&&",
"&&&&&&&&&&&&&&&&&##%%%%%%%%    %%%%%%%%%%%%    %%&&&&&&OO&&&&&&&",
"&&&&&&&&&&&&&&&&&##%%%%%%%%    %%%%%%%%%%%%    %%&&&&&&OO&&&&&&&",
"&&&&&&&&&&&&&&&&&##%%%%%%%%    %%%%%%%%%%%%    %%&&&&&&OO&&&&&&&",
"&&&&&&&&&&&&&&&&&##%%%%%%%%    %%%%%%%%%%%%    %%&&&&&&OO&&&&&&&",
"&&&&&&&&&&&&&&&&&##%%%%%%@@%%%%%%%%%%  %%%%%%%%@@&&&&&&OO&&&&&&&",
"&&&&&&&&&&&&&&&&&##%%%%%%@@%%%%%%%%%%  %%%%%%%%@@&&&&&&OO&&&&&&&",
"&&&&&&&&&&&&&&&####%%%%%%%%  %%%%%%%%%%%%%%%%%%%%  &&&&OO&&&&&&&",
"&&&&&&&&&&&&&&&####%%%%%%%%  %%%%%%%%%%%%%%%%%%%%  &&&&OO&&&&&&&",
"&&&&&&&&&&&&&&&##%%%%%%%%%%%%  ++%%%%%%%%%%%%%%%%%%  &&OO&&&&&&&",
"&&&&&&&&&&&&&&&##%%%%%%%%%%%%  ++%%%%%%%%%%%%%%%%%%  &&OO&&&&&&&",
"&&&&&&&&&&&&&&&##%%%%%%  %%%%  ++......................&&&&&&&&&",
"&&&&&&&&&&&&&&&##%%%%%%  %%%%  ++......................&&&&&&&&&",
"&&&&&&&&&##&&##%%%%%%%%%%    %%++%%%%%%%%%%%%%%&&&&&&&&&&&&&&&&&",
"&&&&&&&&&##&&##%%%%%%%%%%    %%++%%%%%%%%%%%%%%&&&&&&&&&&&&&&&&&",
"&&&&&&&&&&&##%%%%%%%%%%%%%%%%%%%%%%%%%%%%%%%%%%$$&&&&&&&&&&&&&&&",
"&&&&&&&&&&&##%%%%%%%%%%%%%%%%%%%%%%%%%%%%%%%%%%$&&&&&&&&&&&&&&&&",
"&&&&&&&&&&&&&##%%%%%%%%%%%%%%%%%%%%%%%%%%%%%%&&&&&&&&&&&&&&&&&&&",
"&&&&&&&&&&&&&##%%%%%%%%%%%%%%%%%%%%%%%%%%%%%%&&&&&&&&&&&&&&&&&&&",
"&&&&&&&&&&&&&##%%%%%%%%%%%%%%%%%%%%%%%%%%%%&&&&&&&&&&&&&&&&&&&&&",
"&&&&&&&&&&&&&##%%%%%%%%%%%%%%%%%%%%%%%%%%%%&&&&&&&&&&&&&&&&&&&&&",
"&&&&&&&&&&&&&&&######%%%%%%##%%%%##%%%%%%XX&&&&&&&&&&&&&&&&&&&&&",
"&&&&&&&&&&&&&&&######%%%%%%##%%%%##%%%%%%XX&&&&&&&&&&&&&&&&&&&&&",
"&&&&&&&&&&&&&&&&&&&########%%########&&##&&&&&&&&&&&&&&&&&&&&&&&",
"&&&&&&&&&&&&&&&&&&&########%%########&&##&&&&&&&&&&&&&&&&&&&&&&&",
"&&&&&&&&&&&&&&&&&&&&&&&&&&&&&##&&&&&&&&&&&&&&&&&&&&&&&&&&&&&&&&&",
"&&&&&&&&&&&&&&&&&&&&&&&&&&&&&##&&&&&&&&&&&&&&&&&&&&&&&&&&&&&&&&&",
"&&&&&&&&&&&&&&&&&&&&&&&&&&&&&&&&&&&&&&&&&&&&&&&&&&&&&&&&&&&&&&&&",
"&&&&&&&&&&&&&&&&&&&&&&&&&&&&&&&&&&&&&&&&&&&&&&&&&&&&&&&&&&&&&&&&",
"&&&&&&&&&&&&&&&&&&&&&&&&&&&&&&&&&&&&&&&&&&&&&&&&&&&&&&&&&&&&&&&&",
"&&&&&&&&&&&&&&&&&&&&&&&&&&&&&&&&&&&&&&&&&&&&&&&&&&&&&&&&&&&&&&&&",
"&&&&&&&&&&&&&&&&&&&&&&&&&&&&&&&&&&&&&&&&&&&&&&&&&&&&&&&&&&&&&&&&",
"&&&&&&&&&&&&&&&&&&&&&&&&&&&&&&&&&&&&&&&&&&&&&&&&&&&&&&&&&&&&&&&&",
"&&&&&&&&&&&&&&&&&&&&&&&&&&&&&&&&&&&&&&&&&&&&&&&&&&&&&&&&&&&&&&&&",
"&&&&&&&&&&&&&&&&&&&&&&&&&&&&&&&&&&&&&&&&&&&&&&&&&&&&&&&&&&&&&&&&",
"&&&&&&&&&&&&&&&&&&&&&&&&&&&&&&&&&&&&&&&&&&&&&&&&&&&&&&&&&&&&&&&&",
"&&&&&&&&&&&&&&&&&&&&&&&&&&&&&&&&&&&&&&&&&&&&&&&&&&&&&&&&&&&&&&&&",
"&&&&&&&&&&&&&&&&&&&&&&&&&&&&&&&&&&&&&&&&&&&&&&&&&&&&&&&&&&&&&&&&",
"&&&&&&&&&&&&&&&&&&&&&&&&&&&&&&&&&&&&&&&&&&&&&&&&&&&&&&&&&&&&&&&&",
"&&&&&&&&&&&&&&&&&&&&&&&&&&&&&&&&&&&&&&&&&&&&&&&&&&&&&&&&&&&&&&&&",
"&&&&&&&&&&&&&&&&&&&&&&&&&&&&&&&&&&&&&&&&&&&&&&&&&&&&&&&&&&&&&&&&",
"&&&&&&&&&&&&&&&&&&&&&&&&&&&&&&&&&&&&&&&&&&&&&&&&&&&&&&&&&&&&&&&&",
"&&&&&&&&&&&&&&&&&&&&&&&&&&&&&&&&&&&&&&&&&&&&&&&&&&&&&&&&&&&&&&&&",
"&&&&&&&&&&&&&&&&&&&&&&&&&&&&&&&&&&&&&&&&&&&&&&&&&&&&&&&&&&&&&&&&",
"&&&&&&&&&&&&&&&&&&&&&&&&&&&&&&&&&&&&&&&&&&&&&&&&&&&&&&&&&&&&&&&&",
"&&&&&&&&&&&&&&&&&&&&&&&&&&&&&&&&&&&&&&&&&&&&&&&&&&&&&&&&&&&&&&&&"
};
